<?xml version="1.0" encoding="UTF-8"?>
<!DOCTYPE svg PUBLIC "-//W3C//DTD SVG 1.1//EN" "http://www.w3.org/Graphics/SVG/1.1/DTD/svg11.dtd">
<!-- Creator: CorelDRAW 2018 (64-Bit) -->
<svg xmlns="http://www.w3.org/2000/svg" xml:space="preserve" width="100px" height="98px" version="1.1" style="shape-rendering:geometricPrecision; text-rendering:geometricPrecision; image-rendering:optimizeQuality; fill-rule:evenodd; clip-rule:evenodd"
viewBox="0 0 4.48 4.39"
 xmlns:xlink="http://www.w3.org/1999/xlink">
 <defs>
  <style type="text/css">
   <![CDATA[
    .fil0 {fill:url(#id0)}
   ]]>
  </style>
  <linearGradient id="id0" gradientUnits="userSpaceOnUse" x1="1.8" y1="1.77" x2="3.98" y2="5.05">
   <stop offset="0" style="stop-opacity:1; stop-color:#486790"/>
   <stop offset="1" style="stop-opacity:1; stop-color:#FEFEFE"/>
  </linearGradient>
 </defs>
 <g id="Слой_x0020_1">
  <metadata id="CorelCorpID_0Corel-Layer"/>
  <path class="fil0" d="M0.01 2.33l0.14 0.07c0.02,0.15 0,0.7 0.01,0.93 0,0.17 0.03,0.14 -0.09,0.22l0.01 0.14 1.72 0.7c0.09,0.02 0.44,-0.21 0.54,-0.27 0.69,-0.4 1.39,-0.79 2.07,-1.2l0 -0.14 -0.08 -0.04 0 -1.17c0.13,-0.08 0.15,-0.04 0.15,-0.12 -0.02,-0.09 -0.27,-0.18 -0.35,-0.22 -0.32,-0.17 -0.84,-0.47 -1.12,-0.58 -0.13,-0.06 -1.54,-0.63 -1.65,-0.65l-0.69 1.15c-0.1,0.17 -0.66,1.06 -0.66,1.18zm1.78 0.67c0.12,-0.06 0.23,-0.13 0.34,-0.2l1.67 -0.96c0.12,-0.07 0.58,-0.32 0.66,-0.39l-1.34 -0.67 -1.24 2.07c-0.07,0.13 -0.06,0.06 -0.09,0.15zm0.16 -0.13l2.36 -1.36c-0.04,-0.05 -0.21,-0.12 -0.28,-0.16 -0.19,-0.09 -0.8,-0.41 -0.91,-0.45 -0.12,0.27 -1.11,1.8 -1.17,1.97zm0.89 -0.24l0 0.94c0,0.13 -0.03,0.08 0.04,0.1 -0.11,0.05 -0.98,0.55 -1.02,0.62 0.11,-0.03 0.23,-0.12 0.33,-0.18l1.58 -0.91c0.07,-0.05 0.58,-0.3 0.63,-0.39 -0.17,0.05 -0.77,0.45 -1.03,0.57 0.06,-0.03 0.04,0 0.04,-0.09 0.01,-0.03 0,-0.1 0,-0.13l0.01 -0.86 -0.58 0.33zm0.02 0.03l0 0.95c0.06,-0.03 0.18,-0.09 0.23,-0.11l0 -0.97 -0.23 0.13zm0.3 -0.18l0 0.96c0.08,-0.03 0.15,-0.08 0.23,-0.11l0 -0.97 -0.23 0.12zm-1.03 0.98l0 0.25c0.08,-0.03 0.44,-0.24 0.52,-0.3l0 -0.36c-0.06,0.01 -0.34,0.18 -0.44,0.24 -0.1,0.05 -0.08,0.05 -0.08,0.17zm1.48 -0.98l-0.01 0.15 0 0.06 0 0.17 0.53 -0.3 0 -0.21 0 -0.16 -0.52 0.29zm-0.01 -0.06c0.07,-0.02 0.51,-0.26 0.53,-0.31l0 -0.21c-0.11,0.04 -0.24,0.12 -0.34,0.18 -0.22,0.13 -0.19,0.04 -0.19,0.34zm-1.47 0.62l-0.01 0.08 0.01 0.15c0.09,-0.03 0.43,-0.23 0.52,-0.29l0 -0.23c-0.06,0.01 -0.45,0.24 -0.52,0.29zm0.79 -1.7l0 0.23 0.41 -0.23 0 -0.23 -0.41 0.23zm0.24 0.15l-0.01 0.28c0.07,-0.02 0.15,-0.05 0.18,-0.11l0 -0.26 -0.17 0.09zm-0.23 0.13l-0.01 0.29 0.17 -0.1 0.01 -0.27 -0.17 0.08zm-2.93 0.69l1.75 0.69"/>
 </g>
</svg>
