<?xml version="1.0" encoding="UTF-8"?>
<!DOCTYPE svg PUBLIC "-//W3C//DTD SVG 1.1//EN" "http://www.w3.org/Graphics/SVG/1.1/DTD/svg11.dtd">
<!-- Creator: CorelDRAW 2018 (64-Bit) -->
<svg xmlns="http://www.w3.org/2000/svg" xml:space="preserve" width="117px" height="98px" version="1.1" style="shape-rendering:geometricPrecision; text-rendering:geometricPrecision; image-rendering:optimizeQuality; fill-rule:evenodd; clip-rule:evenodd"
viewBox="0 0 7.16 6"
 xmlns:xlink="http://www.w3.org/1999/xlink">
 <defs>
  <style type="text/css">
   <![CDATA[
    .fil0 {fill:url(#id0)}
   ]]>
  </style>
  <linearGradient id="id0" gradientUnits="userSpaceOnUse" x1="3.45" y1="2.7" x2="6.78" y2="7.37">
   <stop offset="0" style="stop-opacity:1; stop-color:#486790"/>
   <stop offset="1" style="stop-opacity:1; stop-color:#FEFEFE"/>
  </linearGradient>
 </defs>
 <g id="Слой_x0020_1">
  <metadata id="CorelCorpID_0Corel-Layer"/>
  <path class="fil0" d="M4.97 1.2l-0.02 3.85c0.04,0 1.46,-0.18 1.5,-0.22 0.04,-0.03 0.02,-0.01 0.03,-0.05 0,-0.01 0,-0.02 0.01,-0.02 0,0 0,-0.01 0,-0.02l0.45 0.25c-0.25,0.07 -4.03,0.57 -4.6,0.65 -0.34,0.05 -0.26,0 -0.74,-0.25l-1.38 -0.75 0.66 -0.1 0 0.23 1.23 0.66 0.01 -3.71c-0.14,-0.08 -1.16,-0.64 -1.23,-0.65l-0.01 3.4 -0.88 0.12 0 0.28c0.24,0.13 0.49,0.26 0.73,0.4 0.23,0.13 0.49,0.25 0.72,0.39 0.15,0.09 0.59,0.36 0.75,0.34 0.96,-0.12 2,-0.28 2.98,-0.42 0.65,-0.09 1.32,-0.2 1.97,-0.27l0.01 -0.29c-0.1,-0.03 -0.59,-0.3 -0.68,-0.37l0 -3.66 -1.51 0.21zm-2.79 0.53l-0.02 3.72 2.05 -0.29c0.01,-0.18 0.03,-3.56 0,-3.72l-2.03 0.29zm1.25 -0.84l-0.01 0.54 0.92 -0.12 0 3.83 0.49 -0.07 0.01 -4.37 -1.41 0.19zm-1.21 -0.7c0.08,0.08 0.88,0.49 1.07,0.6 0.16,0.09 0.44,0.01 0.72,-0.03 0.25,-0.03 0.5,-0.07 0.76,-0.1 -0.09,-0.1 -0.89,-0.49 -1.09,-0.61 -0.14,-0.08 -0.17,-0.05 -0.34,-0.02 -0.13,0.02 -0.25,0.03 -0.38,0.05 -0.14,0.02 -0.64,0.07 -0.74,0.11zm-1.25 0.84c0.1,0.08 0.8,0.44 0.98,0.54 0.17,0.1 0.16,0.12 0.4,0.09 0.22,-0.04 1.72,-0.23 1.79,-0.26 -0.14,-0.05 -0.64,0.15 -0.84,0.04l-1 -0.54c-0.13,-0.08 -0.26,-0.03 -0.43,0 -0.19,0.02 -0.78,0.08 -0.9,0.13zm3.47 -0.63c0.04,0.04 0.37,0.22 0.44,0.24l0.01 0.48c0.12,0.06 1.3,-0.14 1.52,-0.17 -0.08,-0.08 -0.73,-0.41 -0.88,-0.49 -0.2,-0.11 -0.23,-0.19 -0.49,-0.15 -0.21,0.03 -0.4,0.06 -0.6,0.09zm-2.3 0.33c0.05,0.07 1.1,0.63 1.23,0.69l0 -0.54c-0.2,-0.1 -1.12,-0.62 -1.23,-0.65l0 0.5zm0.31 1.57l0.25 0 0 0.23 -0.25 0 0 -0.23zm2.83 -0.64l0.14 0 0 0.34 -0.14 0 0 -0.34zm0.32 -0.03l0.15 0 0 0.34 -0.15 0 0 -0.34zm0.31 -0.05l0.15 0 0 0.34 -0.15 0 0 -0.34zm-0.63 0.76l0.14 0 0 0.35 -0.14 0 0 -0.35zm0.32 -0.03l0.15 0 0 0.34 -0.15 0 0 -0.34zm0.31 -0.05l0.15 0 0 0.35 -0.15 0 0 -0.35zm-0.62 0.72l0.15 0 0 1.7 -0.15 0 0 -1.7zm0.33 -0.03l0.15 0 0 1.7 -0.15 0 0 -1.7zm0.31 -0.05l0.15 0 0 1.7 -0.15 0 0 -1.7zm-3.48 -0.16l0.25 0 0 0.23 -0.25 0 0 -0.23zm0 0.45l0.25 0 0 0.23 -0.25 0 0 -0.23zm0 0.44l0.25 0 0 0.23 -0.25 0 0 -0.23zm0 0.45l0.25 0 0 0.23 -0.25 0 0 -0.23zm0 0.44l0.25 0 0 0.23 -0.25 0 0 -0.23zm0.44 -2.28l0.24 0 0 0.23 -0.24 0 0 -0.23zm0 0.44l0.24 0 0 0.23 -0.24 0 0 -0.23zm0 0.45l0.24 0 0 0.23 -0.24 0 0 -0.23zm0 0.44l0.24 0 0 0.23 -0.24 0 0 -0.23zm0 0.45l0.24 0 0 0.23 -0.24 0 0 -0.23zm0 0.44l0.24 0 0 0.23 -0.24 0 0 -0.23zm0.42 -2.28l0.24 0 0 0.23 -0.24 0 0 -0.23zm0 0.44l0.24 0 0 0.23 -0.24 0 0 -0.23zm0 0.45l0.24 0 0 0.22 -0.24 0 0 -0.22zm0 0.44l0.24 0 0 0.23 -0.24 0 0 -0.23zm0 0.44l0.24 0 0 0.23 -0.24 0 0 -0.23zm0 0.45l0.24 0 0 0.23 -0.24 0 0 -0.23zm0.4 -2.3l0.24 0 0 0.23 -0.24 0 0 -0.23zm0 0.45l0.24 0 0 0.23 -0.24 0 0 -0.23zm0 0.44l0.24 0 0 0.23 -0.24 0 0 -0.23zm0 0.45l0.24 0 0 0.22 -0.24 0 0 -0.22zm0 0.44l0.24 0 0 0.23 -0.24 0 0 -0.23zm0 0.44l0.24 0 0 0.23 -0.24 0 0 -0.23z"/>
 </g>
</svg>
